<mxfile host="Electron" modified="2024-06-03T23:56:20.372Z" agent="Mozilla/5.0 (Windows NT 10.0; Win64; x64) AppleWebKit/537.36 (KHTML, like Gecko) draw.io/24.4.13 Chrome/124.0.6367.207 Electron/30.0.6 Safari/537.36" etag="a0V227G-Fb_6DT8iY-Ix" version="24.4.13" type="device">
  <diagram name="Страница — 1" id="AknwJx3tXOcYvrG75vYw">
    <mxGraphModel dx="954" dy="537" grid="1" gridSize="10" guides="1" tooltips="1" connect="1" arrows="1" fold="1" page="1" pageScale="1" pageWidth="827" pageHeight="1169" math="0" shadow="0">
      <root>
        <mxCell id="0" />
        <mxCell id="1" parent="0" />
        <mxCell id="2yPvkzb1WRux_WeH9gnC-1" value="Начало" style="rounded=1;whiteSpace=wrap;html=1;arcSize=50;" vertex="1" parent="1">
          <mxGeometry x="354" y="40" width="120" height="20" as="geometry" />
        </mxCell>
        <mxCell id="2yPvkzb1WRux_WeH9gnC-2" value="" style="endArrow=none;dashed=1;html=1;rounded=0;exitX=0;exitY=0.5;exitDx=0;exitDy=0;entryX=1;entryY=0.5;entryDx=0;entryDy=0;exitPerimeter=0;" edge="1" source="2yPvkzb1WRux_WeH9gnC-3" target="2yPvkzb1WRux_WeH9gnC-1" parent="1">
          <mxGeometry width="50" height="50" relative="1" as="geometry">
            <mxPoint x="540" y="55" as="sourcePoint" />
            <mxPoint x="520" y="55" as="targetPoint" />
          </mxGeometry>
        </mxCell>
        <mxCell id="2yPvkzb1WRux_WeH9gnC-3" value="    Входные данные:&#xa;     int length, DataGridView TableMain,&#xa;      int length2, DataGridView TableTwink" style="strokeWidth=2;shape=mxgraph.flowchart.annotation_1;align=left;pointerEvents=1;recursiveResize=1;autosize=0;verticalAlign=middle;horizontal=1;" vertex="1" parent="1">
          <mxGeometry x="490" y="15" width="50" height="70" as="geometry" />
        </mxCell>
        <mxCell id="2yPvkzb1WRux_WeH9gnC-4" value="" style="endArrow=none;html=1;rounded=0;exitX=0.5;exitY=0;exitDx=0;exitDy=0;exitPerimeter=0;entryX=0.5;entryY=1;entryDx=0;entryDy=0;" edge="1" source="2yPvkzb1WRux_WeH9gnC-5" parent="1" target="2yPvkzb1WRux_WeH9gnC-1">
          <mxGeometry width="50" height="50" relative="1" as="geometry">
            <mxPoint x="420" y="200" as="sourcePoint" />
            <mxPoint x="414" y="60" as="targetPoint" />
          </mxGeometry>
        </mxCell>
        <mxCell id="2yPvkzb1WRux_WeH9gnC-5" value="i = 0; length" style="strokeWidth=2;html=1;shape=mxgraph.flowchart.loop_limit;whiteSpace=wrap;" vertex="1" parent="1">
          <mxGeometry x="364" y="65" width="100" height="20" as="geometry" />
        </mxCell>
        <mxCell id="2yPvkzb1WRux_WeH9gnC-6" value="i++" style="strokeWidth=2;html=1;shape=mxgraph.flowchart.loop_limit;whiteSpace=wrap;direction=west;" vertex="1" parent="1">
          <mxGeometry x="364" y="180" width="100" height="20" as="geometry" />
        </mxCell>
        <mxCell id="2yPvkzb1WRux_WeH9gnC-8" value="" style="endArrow=none;html=1;rounded=0;entryX=0.5;entryY=1;entryDx=0;entryDy=0;entryPerimeter=0;exitX=0.5;exitY=0;exitDx=0;exitDy=0;exitPerimeter=0;" edge="1" source="2yPvkzb1WRux_WeH9gnC-11" target="2yPvkzb1WRux_WeH9gnC-5" parent="1">
          <mxGeometry width="50" height="50" relative="1" as="geometry">
            <mxPoint x="414" y="110" as="sourcePoint" />
            <mxPoint x="490" y="280" as="targetPoint" />
          </mxGeometry>
        </mxCell>
        <mxCell id="2yPvkzb1WRux_WeH9gnC-9" value="" style="endArrow=none;html=1;rounded=0;exitX=0.5;exitY=1;exitDx=0;exitDy=0;exitPerimeter=0;entryX=0.5;entryY=0;entryDx=0;entryDy=0;entryPerimeter=0;" edge="1" source="2yPvkzb1WRux_WeH9gnC-6" target="2yPvkzb1WRux_WeH9gnC-12" parent="1">
          <mxGeometry width="50" height="50" relative="1" as="geometry">
            <mxPoint x="243" y="450" as="sourcePoint" />
            <mxPoint x="217" y="250" as="targetPoint" />
          </mxGeometry>
        </mxCell>
        <mxCell id="2yPvkzb1WRux_WeH9gnC-11" value="j = 0; length" style="strokeWidth=2;html=1;shape=mxgraph.flowchart.loop_limit;whiteSpace=wrap;" vertex="1" parent="1">
          <mxGeometry x="364" y="90" width="100" height="20" as="geometry" />
        </mxCell>
        <mxCell id="2yPvkzb1WRux_WeH9gnC-12" value="j++" style="strokeWidth=2;html=1;shape=mxgraph.flowchart.loop_limit;whiteSpace=wrap;direction=west;" vertex="1" parent="1">
          <mxGeometry x="364" y="150" width="100" height="20" as="geometry" />
        </mxCell>
        <mxCell id="2yPvkzb1WRux_WeH9gnC-13" value="TableMain.Rows[i].Cells[j].Selected = false" style="rounded=0;whiteSpace=wrap;html=1;" vertex="1" parent="1">
          <mxGeometry x="294" y="120" width="240" height="20" as="geometry" />
        </mxCell>
        <mxCell id="2yPvkzb1WRux_WeH9gnC-14" value="" style="endArrow=none;html=1;rounded=0;entryX=0.5;entryY=1;entryDx=0;entryDy=0;entryPerimeter=0;exitX=0.5;exitY=0;exitDx=0;exitDy=0;" edge="1" source="2yPvkzb1WRux_WeH9gnC-13" target="2yPvkzb1WRux_WeH9gnC-11" parent="1">
          <mxGeometry width="50" height="50" relative="1" as="geometry">
            <mxPoint x="440" y="370" as="sourcePoint" />
            <mxPoint x="490" y="320" as="targetPoint" />
          </mxGeometry>
        </mxCell>
        <mxCell id="2yPvkzb1WRux_WeH9gnC-15" value="" style="endArrow=none;html=1;rounded=0;entryX=0.5;entryY=1;entryDx=0;entryDy=0;exitX=0.5;exitY=1;exitDx=0;exitDy=0;exitPerimeter=0;" edge="1" source="2yPvkzb1WRux_WeH9gnC-12" target="2yPvkzb1WRux_WeH9gnC-13" parent="1">
          <mxGeometry width="50" height="50" relative="1" as="geometry">
            <mxPoint x="440" y="370" as="sourcePoint" />
            <mxPoint x="490" y="320" as="targetPoint" />
          </mxGeometry>
        </mxCell>
        <mxCell id="2yPvkzb1WRux_WeH9gnC-16" value="" style="endArrow=none;html=1;rounded=0;exitX=0.5;exitY=0;exitDx=0;exitDy=0;exitPerimeter=0;entryX=0.5;entryY=0;entryDx=0;entryDy=0;entryPerimeter=0;" edge="1" source="2yPvkzb1WRux_WeH9gnC-17" parent="1" target="2yPvkzb1WRux_WeH9gnC-6">
          <mxGeometry width="50" height="50" relative="1" as="geometry">
            <mxPoint x="359" y="470" as="sourcePoint" />
            <mxPoint x="410" y="280" as="targetPoint" />
          </mxGeometry>
        </mxCell>
        <mxCell id="2yPvkzb1WRux_WeH9gnC-17" value="i = 0; 2" style="strokeWidth=2;html=1;shape=mxgraph.flowchart.loop_limit;whiteSpace=wrap;" vertex="1" parent="1">
          <mxGeometry x="364" y="210" width="100" height="30" as="geometry" />
        </mxCell>
        <mxCell id="2yPvkzb1WRux_WeH9gnC-18" value="i++" style="strokeWidth=2;html=1;shape=mxgraph.flowchart.loop_limit;whiteSpace=wrap;direction=west;" vertex="1" parent="1">
          <mxGeometry x="364" y="340" width="100" height="20" as="geometry" />
        </mxCell>
        <mxCell id="2yPvkzb1WRux_WeH9gnC-19" value="" style="endArrow=none;html=1;rounded=0;entryX=0.5;entryY=1;entryDx=0;entryDy=0;entryPerimeter=0;exitX=0.5;exitY=0;exitDx=0;exitDy=0;exitPerimeter=0;" edge="1" source="2yPvkzb1WRux_WeH9gnC-22" target="2yPvkzb1WRux_WeH9gnC-17" parent="1">
          <mxGeometry width="50" height="50" relative="1" as="geometry">
            <mxPoint x="414" y="300" as="sourcePoint" />
            <mxPoint x="490" y="470" as="targetPoint" />
          </mxGeometry>
        </mxCell>
        <mxCell id="2yPvkzb1WRux_WeH9gnC-20" value="" style="endArrow=none;html=1;rounded=0;exitX=0.5;exitY=1;exitDx=0;exitDy=0;exitPerimeter=0;entryX=0.5;entryY=0;entryDx=0;entryDy=0;entryPerimeter=0;" edge="1" source="2yPvkzb1WRux_WeH9gnC-18" target="2yPvkzb1WRux_WeH9gnC-23" parent="1">
          <mxGeometry width="50" height="50" relative="1" as="geometry">
            <mxPoint x="243" y="580" as="sourcePoint" />
            <mxPoint x="217" y="380" as="targetPoint" />
          </mxGeometry>
        </mxCell>
        <mxCell id="2yPvkzb1WRux_WeH9gnC-22" value="j = 0; length2" style="strokeWidth=2;html=1;shape=mxgraph.flowchart.loop_limit;whiteSpace=wrap;" vertex="1" parent="1">
          <mxGeometry x="364" y="250" width="100" height="20" as="geometry" />
        </mxCell>
        <mxCell id="2yPvkzb1WRux_WeH9gnC-23" value="j++" style="strokeWidth=2;html=1;shape=mxgraph.flowchart.loop_limit;whiteSpace=wrap;direction=west;" vertex="1" parent="1">
          <mxGeometry x="364" y="310" width="100" height="20" as="geometry" />
        </mxCell>
        <mxCell id="2yPvkzb1WRux_WeH9gnC-24" value="TableTwink.Rows[i].Cells[j].Selected = false" style="rounded=0;whiteSpace=wrap;html=1;" vertex="1" parent="1">
          <mxGeometry x="295" y="280" width="238" height="20" as="geometry" />
        </mxCell>
        <mxCell id="2yPvkzb1WRux_WeH9gnC-25" value="" style="endArrow=none;html=1;rounded=0;entryX=0.5;entryY=1;entryDx=0;entryDy=0;entryPerimeter=0;exitX=0.5;exitY=0;exitDx=0;exitDy=0;" edge="1" source="2yPvkzb1WRux_WeH9gnC-24" target="2yPvkzb1WRux_WeH9gnC-22" parent="1">
          <mxGeometry width="50" height="50" relative="1" as="geometry">
            <mxPoint x="440" y="500" as="sourcePoint" />
            <mxPoint x="490" y="450" as="targetPoint" />
          </mxGeometry>
        </mxCell>
        <mxCell id="2yPvkzb1WRux_WeH9gnC-26" value="" style="endArrow=none;html=1;rounded=0;entryX=0.5;entryY=1;entryDx=0;entryDy=0;exitX=0.5;exitY=1;exitDx=0;exitDy=0;exitPerimeter=0;" edge="1" source="2yPvkzb1WRux_WeH9gnC-23" target="2yPvkzb1WRux_WeH9gnC-24" parent="1">
          <mxGeometry width="50" height="50" relative="1" as="geometry">
            <mxPoint x="440" y="500" as="sourcePoint" />
            <mxPoint x="490" y="450" as="targetPoint" />
          </mxGeometry>
        </mxCell>
        <mxCell id="2yPvkzb1WRux_WeH9gnC-27" value="Конец" style="rounded=1;whiteSpace=wrap;html=1;arcSize=50;" vertex="1" parent="1">
          <mxGeometry x="354" y="370" width="120" height="20" as="geometry" />
        </mxCell>
        <mxCell id="2yPvkzb1WRux_WeH9gnC-28" value="" style="endArrow=none;html=1;rounded=0;entryX=0.5;entryY=0;entryDx=0;entryDy=0;exitX=0.5;exitY=0;exitDx=0;exitDy=0;exitPerimeter=0;" edge="1" target="2yPvkzb1WRux_WeH9gnC-27" parent="1" source="2yPvkzb1WRux_WeH9gnC-18">
          <mxGeometry width="50" height="50" relative="1" as="geometry">
            <mxPoint x="414" y="470" as="sourcePoint" />
            <mxPoint x="444" y="510" as="targetPoint" />
            <Array as="points" />
          </mxGeometry>
        </mxCell>
      </root>
    </mxGraphModel>
  </diagram>
</mxfile>
